<svg width="77" height="79" viewBox="0 0 77 79" fill="none" xmlns="http://www.w3.org/2000/svg">
<path d="M60.486 39.1421L72.9015 26.7312C75.7666 23.8671 75.7666 19.4119 72.9015 16.5479L55.2332 34.2095L52.0497 31.0272L64.6245 18.4572C67.4896 15.5932 67.4896 11.138 64.6245 8.27395L46.797 26.0947L43.6135 22.9124L56.3474 10.1833C59.2126 7.31926 59.2126 2.86405 56.3474 0L38.3608 17.6617L26.9003 6.04634C24.0352 3.18229 19.5783 3.18229 16.7132 6.04634L33.2673 22.5942L29.9246 25.9356L18.4641 14.4794C15.599 11.6153 11.1421 11.6153 8.277 14.4794L24.8311 31.0272L21.6476 34.2095L10.1871 22.7533C7.32197 19.8893 2.86512 19.8893 0 22.7533L16.2357 38.9829L3.82016 51.3938C0.955032 54.2579 0.955032 58.7131 3.82016 61.5772L21.4884 43.9155L24.6719 47.0978L12.0972 59.6678C9.23208 62.5318 9.23208 66.987 12.0972 69.8511L29.9246 52.0303L33.1081 55.2126L20.3742 67.9417C17.5091 70.8058 17.5091 75.261 20.3742 78.125L38.2017 60.3042L49.6621 71.9196C52.5272 74.7836 56.9841 74.7836 59.8493 71.9196L43.2952 55.3717L46.6378 52.0303L58.0984 63.4865C60.9635 66.3506 65.4203 66.3506 68.2855 63.4865L51.7314 46.9386L54.9149 43.7564L66.3754 55.2126C69.2405 58.0766 73.6974 58.0766 76.5625 55.2126L60.486 39.1421ZM38.3608 27.6859L41.5443 30.8681L38.2017 34.2095L35.0182 31.0272L38.3608 27.6859ZM29.9246 42.0061L27.0595 39.1421L29.9246 36.278L32.7898 39.3012L29.9246 42.0061ZM38.3608 50.28L35.1774 47.0978L38.52 43.7564L41.7034 46.9386L38.3608 50.28ZM43.9319 38.9829L46.797 36.1189L49.6621 38.9829L46.797 41.847L43.9319 38.9829Z" fill="#07235B"/>
</svg>
